<?xml version="1.0" encoding="UTF-8" standalone="no"?>
<svg
   width="16"
   height="16"
   fill="currentColor"
   class="bi bi-robot"
   viewBox="0 0 16 16"
   version="1.1"
   id="svg16"
   sodipodi:docname="logo.svg"
   inkscape:version="1.2.2 (732a01da63, 2022-12-09)"
   xmlns:inkscape="http://www.inkscape.org/namespaces/inkscape"
   xmlns:sodipodi="http://sodipodi.sourceforge.net/DTD/sodipodi-0.dtd"
   xmlns="http://www.w3.org/2000/svg"
   xmlns:svg="http://www.w3.org/2000/svg">
  <defs
     id="defs20">
    <rect
       x="15.992188"
       y="0.0078125"
       width="35.074219"
       height="16.042969"
       id="rect896" />
  </defs>
  <sodipodi:namedview
     id="namedview18"
     pagecolor="#ffffff"
     bordercolor="#000000"
     borderopacity="0.25"
     inkscape:showpageshadow="2"
     inkscape:pageopacity="0.0"
     inkscape:pagecheckerboard="0"
     inkscape:deskcolor="#d1d1d1"
     showgrid="false"
     inkscape:zoom="8"
     inkscape:cx="60.0625"
     inkscape:cy="-0.3125"
     inkscape:window-width="1920"
     inkscape:window-height="1013"
     inkscape:window-x="-9"
     inkscape:window-y="29"
     inkscape:window-maximized="1"
     inkscape:current-layer="svg16" />
  <path
     d="M 6,12.5 A 0.5,0.5 0 0 1 6.5,12 h 3 a 0.5,0.5 0 0 1 0,1 h -3 A 0.5,0.5 0 0 1 6,12.5 Z M 3,8.062 C 3,6.76 4.235,5.765 5.53,5.886 a 26.58,26.58 0 0 0 4.94,0 C 11.765,5.765 13,6.76 13,8.062 v 1.157 a 0.933,0.933 0 0 1 -0.765,0.935 C 11.39,10.301 9.895,10.5 8,10.5 6.105,10.5 4.61,10.3 3.765,10.154 A 0.933,0.933 0 0 1 3,9.219 Z M 7.542,7.235 A 0.25,0.25 0 0 0 7.325,7.303 l -0.92,0.9 A 24.767,24.767 0 0 1 4.534,8.02 0.25,0.25 0 0 0 4.466,8.515 c 0.55,0.076 1.232,0.149 2.02,0.193 A 0.25,0.25 0 0 0 6.675,8.637 L 7.429,7.901 8.276,9.611 A 0.25,0.25 0 0 0 8.68,9.673 L 9.612,8.703 A 25.286,25.286 0 0 0 11.534,8.515 0.25,0.25 0 0 0 11.466,8.02 C 10.928,8.094 10.259,8.165 9.486,8.209 A 0.25,0.25 0 0 0 9.32,8.285 L 8.566,9.07 7.724,7.37 A 0.25,0.25 0 0 0 7.542,7.235 Z"
     id="path12"
     style="fill:#040404;fill-opacity:1" />
  <path
     d="m 8.5,1.866 a 1,1 0 1 0 -1,0 V 3 h -2 A 4.5,4.5 0 0 0 1,7.5 V 8 A 1,1 0 0 0 0,9 v 2 a 1,1 0 0 0 1,1 v 1 a 2,2 0 0 0 2,2 h 10 a 2,2 0 0 0 2,-2 v -1 a 1,1 0 0 0 1,-1 V 9 A 1,1 0 0 0 15,8 V 7.5 A 4.5,4.5 0 0 0 10.5,3 h -2 z M 14,7.5 V 13 a 1,1 0 0 1 -1,1 H 3 A 1,1 0 0 1 2,13 V 7.5 A 3.5,3.5 0 0 1 5.5,4 h 5 A 3.5,3.5 0 0 1 14,7.5 Z"
     id="path14"
     style="fill:#040404;fill-opacity:1" />
  <text
     xml:space="preserve"
     id="text894"
     style="white-space:pre;shape-inside:url(#rect896);fill:#ffffff;stroke:#00ffff" />
  <text
     xml:space="preserve"
     style="font-style:normal;font-variant:normal;font-weight:normal;font-stretch:normal;font-family:inconsolata;-inkscape-font-specification:inconsolata;fill:#ffffff;stroke:#ffffff;stroke-opacity:1"
     x="17.67767"
     y="12.993087"
     id="text3288"><tspan
       sodipodi:role="line"
       id="tspan3286"
       x="17.67767"
       y="12.993087" /></text>
  <text
     xml:space="preserve"
     style="font-style:normal;font-variant:normal;font-weight:normal;font-stretch:normal;font-family:inconsolata;-inkscape-font-specification:inconsolata;white-space:pre;inline-size:1.72357;fill:#ffffff;stroke:#ffffff"
     x="19.445436"
     y="6.0987959"
     id="text792" />
  <text
     xml:space="preserve"
     style="font-style:normal;font-variant:normal;font-weight:normal;font-stretch:normal;font-size:5.33333px;font-family:inconsolata;-inkscape-font-specification:inconsolata;fill:#ffffff;stroke:#ffffff"
     x="18.517359"
     y="13.965359"
     id="text846"><tspan
       sodipodi:role="line"
       id="tspan844"
       x="18.517359"
       y="13.965359" /></text>
  <text
     xml:space="preserve"
     style="font-style:normal;font-variant:normal;font-weight:normal;font-stretch:normal;font-size:5.33333px;font-family:inconsolata;-inkscape-font-specification:inconsolata;fill:#ffffff;fill-opacity:1;stroke:none"
     x="18.0625"
     y="5.9375"
     id="text850"><tspan
       sodipodi:role="line"
       id="tspan848"
       x="18.0625"
       y="5.9375" /></text>
</svg>
