<svg id="visual" viewBox="0 0 900 600" width="900" height="600" xmlns="http://www.w3.org/2000/svg" xmlns:xlink="http://www.w3.org/1999/xlink" version="1.1"><path d="M0 490L16.7 484.7C33.3 479.3 66.7 468.7 100 471.5C133.3 474.3 166.7 490.7 200 495.7C233.3 500.7 266.7 494.3 300 484.2C333.3 474 366.7 460 400 453.8C433.3 447.7 466.7 449.3 500 452C533.3 454.7 566.7 458.3 600 457.7C633.3 457 666.7 452 700 461.3C733.3 470.7 766.7 494.3 800 500.5C833.3 506.7 866.7 495.3 883.3 489.7L900 484L900 601L883.3 601C866.7 601 833.3 601 800 601C766.7 601 733.3 601 700 601C666.7 601 633.3 601 600 601C566.7 601 533.3 601 500 601C466.7 601 433.3 601 400 601C366.7 601 333.3 601 300 601C266.7 601 233.3 601 200 601C166.7 601 133.3 601 100 601C66.7 601 33.3 601 16.7 601L0 601Z" fill="#000000" stroke-linecap="round" stroke-linejoin="miter"></path></svg>